<mxfile host="Electron" agent="Mozilla/5.0 (Windows NT 10.0; Win64; x64) AppleWebKit/537.36 (KHTML, like Gecko) draw.io/27.0.9 Chrome/134.0.6998.205 Electron/35.4.0 Safari/537.36" version="27.0.9">
  <diagram name="Strona-1" id="3ZfGrA_zzsu8qPP8N_HZ">
    <mxGraphModel dx="983" dy="586" grid="1" gridSize="10" guides="1" tooltips="1" connect="1" arrows="1" fold="1" page="1" pageScale="1" pageWidth="827" pageHeight="1169" math="0" shadow="0">
      <root>
        <mxCell id="0" />
        <mxCell id="1" parent="0" />
        <mxCell id="Ih1fNZNk7-LuDVXiIQP1-13" style="edgeStyle=orthogonalEdgeStyle;rounded=0;orthogonalLoop=1;jettySize=auto;html=1;exitX=0.5;exitY=1;exitDx=0;exitDy=0;entryX=0.5;entryY=0;entryDx=0;entryDy=0;" edge="1" parent="1" source="Ih1fNZNk7-LuDVXiIQP1-4" target="Ih1fNZNk7-LuDVXiIQP1-6">
          <mxGeometry relative="1" as="geometry" />
        </mxCell>
        <mxCell id="Ih1fNZNk7-LuDVXiIQP1-4" value="PostgreSQL" style="rounded=0;whiteSpace=wrap;html=1;fillColor=#d5e8d4;strokeColor=#82b366;" vertex="1" parent="1">
          <mxGeometry x="40" y="280" width="120" height="40" as="geometry" />
        </mxCell>
        <mxCell id="Ih1fNZNk7-LuDVXiIQP1-14" style="edgeStyle=orthogonalEdgeStyle;rounded=0;orthogonalLoop=1;jettySize=auto;html=1;exitX=0.5;exitY=1;exitDx=0;exitDy=0;entryX=0.5;entryY=0;entryDx=0;entryDy=0;" edge="1" parent="1" source="Ih1fNZNk7-LuDVXiIQP1-5" target="Ih1fNZNk7-LuDVXiIQP1-7">
          <mxGeometry relative="1" as="geometry" />
        </mxCell>
        <mxCell id="Ih1fNZNk7-LuDVXiIQP1-5" value="MongoDB" style="rounded=0;whiteSpace=wrap;html=1;fillColor=#d5e8d4;strokeColor=#82b366;" vertex="1" parent="1">
          <mxGeometry x="200" y="280" width="120" height="40" as="geometry" />
        </mxCell>
        <mxCell id="Ih1fNZNk7-LuDVXiIQP1-6" value="Local Path Storage" style="rounded=0;whiteSpace=wrap;html=1;fillColor=#f8cecc;strokeColor=#b85450;" vertex="1" parent="1">
          <mxGeometry x="40" y="360" width="120" height="40" as="geometry" />
        </mxCell>
        <mxCell id="Ih1fNZNk7-LuDVXiIQP1-7" value="Local Path Storage" style="rounded=0;whiteSpace=wrap;html=1;fillColor=#f8cecc;strokeColor=#b85450;" vertex="1" parent="1">
          <mxGeometry x="200" y="360" width="120" height="40" as="geometry" />
        </mxCell>
        <mxCell id="Ih1fNZNk7-LuDVXiIQP1-15" style="edgeStyle=orthogonalEdgeStyle;rounded=0;orthogonalLoop=1;jettySize=auto;html=1;exitX=0.5;exitY=1;exitDx=0;exitDy=0;entryX=0.5;entryY=0;entryDx=0;entryDy=0;" edge="1" parent="1" source="Ih1fNZNk7-LuDVXiIQP1-8" target="Ih1fNZNk7-LuDVXiIQP1-9">
          <mxGeometry relative="1" as="geometry" />
        </mxCell>
        <mxCell id="Ih1fNZNk7-LuDVXiIQP1-8" value="RabbitMQ" style="rounded=0;whiteSpace=wrap;html=1;fillColor=#d5e8d4;strokeColor=#82b366;" vertex="1" parent="1">
          <mxGeometry x="360" y="280" width="120" height="40" as="geometry" />
        </mxCell>
        <mxCell id="Ih1fNZNk7-LuDVXiIQP1-9" value="Local Path Storage" style="rounded=0;whiteSpace=wrap;html=1;fillColor=#f8cecc;strokeColor=#b85450;" vertex="1" parent="1">
          <mxGeometry x="360" y="360" width="120" height="40" as="geometry" />
        </mxCell>
        <mxCell id="Ih1fNZNk7-LuDVXiIQP1-16" style="edgeStyle=orthogonalEdgeStyle;rounded=0;orthogonalLoop=1;jettySize=auto;html=1;exitX=0.5;exitY=0;exitDx=0;exitDy=0;entryX=0.5;entryY=1;entryDx=0;entryDy=0;" edge="1" parent="1" source="Ih1fNZNk7-LuDVXiIQP1-10" target="Ih1fNZNk7-LuDVXiIQP1-6">
          <mxGeometry relative="1" as="geometry" />
        </mxCell>
        <mxCell id="Ih1fNZNk7-LuDVXiIQP1-17" style="edgeStyle=orthogonalEdgeStyle;rounded=0;orthogonalLoop=1;jettySize=auto;html=1;exitX=0.5;exitY=0;exitDx=0;exitDy=0;entryX=0.5;entryY=1;entryDx=0;entryDy=0;" edge="1" parent="1" source="Ih1fNZNk7-LuDVXiIQP1-10" target="Ih1fNZNk7-LuDVXiIQP1-7">
          <mxGeometry relative="1" as="geometry" />
        </mxCell>
        <mxCell id="Ih1fNZNk7-LuDVXiIQP1-18" style="edgeStyle=orthogonalEdgeStyle;rounded=0;orthogonalLoop=1;jettySize=auto;html=1;exitX=0.5;exitY=0;exitDx=0;exitDy=0;entryX=0.5;entryY=1;entryDx=0;entryDy=0;" edge="1" parent="1" source="Ih1fNZNk7-LuDVXiIQP1-10" target="Ih1fNZNk7-LuDVXiIQP1-9">
          <mxGeometry relative="1" as="geometry" />
        </mxCell>
        <mxCell id="Ih1fNZNk7-LuDVXiIQP1-10" value="Velero" style="rounded=0;whiteSpace=wrap;html=1;fillColor=#ffe6cc;strokeColor=#d79b00;" vertex="1" parent="1">
          <mxGeometry x="200" y="480" width="120" height="40" as="geometry" />
        </mxCell>
        <mxCell id="Ih1fNZNk7-LuDVXiIQP1-11" value="Loki" style="rounded=0;whiteSpace=wrap;html=1;fillColor=#ffe6cc;strokeColor=#d79b00;" vertex="1" parent="1">
          <mxGeometry x="520" y="280" width="120" height="40" as="geometry" />
        </mxCell>
        <mxCell id="Ih1fNZNk7-LuDVXiIQP1-26" value="S3" style="ellipse;shape=cloud;whiteSpace=wrap;html=1;" vertex="1" parent="1">
          <mxGeometry x="520" y="460" width="120" height="80" as="geometry" />
        </mxCell>
        <mxCell id="Ih1fNZNk7-LuDVXiIQP1-30" style="edgeStyle=orthogonalEdgeStyle;rounded=0;orthogonalLoop=1;jettySize=auto;html=1;exitX=1;exitY=0.5;exitDx=0;exitDy=0;entryX=0.083;entryY=0.5;entryDx=0;entryDy=0;entryPerimeter=0;" edge="1" parent="1" source="Ih1fNZNk7-LuDVXiIQP1-10" target="Ih1fNZNk7-LuDVXiIQP1-26">
          <mxGeometry relative="1" as="geometry" />
        </mxCell>
        <mxCell id="Ih1fNZNk7-LuDVXiIQP1-32" style="edgeStyle=orthogonalEdgeStyle;rounded=0;orthogonalLoop=1;jettySize=auto;html=1;exitX=0.5;exitY=1;exitDx=0;exitDy=0;entryX=0.5;entryY=0.125;entryDx=0;entryDy=0;entryPerimeter=0;sourcePerimeterSpacing=0;startSize=6;targetPerimeterSpacing=0;strokeWidth=1;" edge="1" parent="1" source="Ih1fNZNk7-LuDVXiIQP1-11" target="Ih1fNZNk7-LuDVXiIQP1-26">
          <mxGeometry relative="1" as="geometry" />
        </mxCell>
      </root>
    </mxGraphModel>
  </diagram>
</mxfile>
